<svg width="53" height="57" viewBox="0 0 53 57" fill="none" xmlns="http://www.w3.org/2000/svg">
<path d="M34.5505 31.7146C39.6312 28.8832 43.0741 23.4634 43.0757 17.2327C43.0734 8.07784 35.6554 0.660217 26.5023 0.660217C17.3466 0.660217 9.92784 8.07813 9.92784 17.2336C9.92784 23.4638 13.3691 28.884 18.4514 31.7156C8.19213 35.0943 0.783232 44.75 0.78125 56.1427H4.21175C4.23343 43.8306 14.1907 33.8734 26.5009 33.8517C38.8111 33.8733 48.7682 43.8306 48.789 56.1427H52.2203C52.2184 44.749 44.8097 35.0941 34.5505 31.7146ZM13.3552 17.2336C13.3695 9.97405 19.2421 4.10212 26.5026 4.08824C33.7607 4.10179 39.6341 9.97435 39.645 17.2336C39.6338 24.4917 33.7608 30.3652 26.5026 30.3771C19.2426 30.3643 13.37 24.4913 13.3552 17.2336Z" fill="#777777"/>
</svg>
